# xmcd CD database file
#
# Track frame offsets:
#	150
#	32435
#	60092
#	89337
#	114592
#	138355
#	157170
#	177880
#	212947
#	247212
#	278617
#	306205
#
# Disc length: 4408 seconds
#
# Revision: 2
# Processed by: cddbd v1.5.1PL0 Copyright (c) Steve Scherf et al.
# Submitted via: CDex 1.51
#
DISCID=a411360c
DTITLE=Houston Person - Lost and Found: Sweet Slumber - Wildflower
DYEAR=1997
DGENRE=Jazz
TTITLE0=Late Night Lullaby
TTITLE1=No Denial Blues
TTITLE2=Glory of Love
TTITLE3=Never Let Me Go
TTITLE4=Trust In Me
TTITLE5=When I'm Not With You
TTITLE6=Sweet Slumber
TTITLE7=Preachin' and Teachin'
TTITLE8=Dameron
TTITLE9=Wildflower
TTITLE10=Ain't Misbehavin'
TTITLE11=My Romance
EXTD=YEAR: 1997
EXTT0=
EXTT1=
EXTT2=
EXTT3=
EXTT4=
EXTT5=
EXTT6=
EXTT7=
EXTT8=
EXTT9=
EXTT10=
EXTT11=
PLAYORDER=
